<svg xmlns="http://www.w3.org/2000/svg"
shape-rendering="geometricPrecision"
width="4000" height="4000" viewBox="0 0 474 474">
  <metadata>null</metadata>

<path d="
M 20.947 332.612
C 20.996 331.929 20.983 332.342 20.932 331.374
C 34.622 331.446 48.315 331.242 62.006 331.292
C 65.673 331.305 69.341 331.363 73.008 331.355
C 74.362 331.352 76.646 330.875 77.856 331.486
C 77.604 334.726 77.626 338.214 77.887 341.453
C 62.793 341.228 47.592 341.313 32.499 341.657
C 31.396 342.879 32.098 346.359 32.103 347.998
C 32.119 353.589 31.996 359.187 32.105 364.774
C 32.861 365.224 34.476 364.928 35.393 364.922
C 37.871 364.905 40.341 365.008 42.817 365.025
C 49.714 365.073 56.608 364.939 63.504 364.94
C 66.58 364.941 70.13 364.447 73.152 365.024
C 73.107 367.507 73.065 370.011 73.154 372.495
C 73.167 372.872 73.395 374.754 73.018 374.865
C 66.035 374.592 58.993 374.866 52.003 374.884
C 45.434 374.901 38.733 374.626 32.195 375.136
C 32.297 381.083 32.155 387.048 32.148 392.998
C 32.146 394.6 31.469 398.205 32.4 399.483
C 37.767 398.848 43.549 399.417 48.96 399.425
C 58.692 399.441 68.48 399.261 78.204 399.55
C 78.641 400.397 78.397 401.562 78.372 402.501
C 78.309 404.842 78.227 407.303 78.527 409.629
C 73.331 410.205 67.74 409.642 62.505 409.641
C 48.759 409.638 34.876 409.139 21.146 409.77
C 20.552 407.817 21.034 405.033 21.04 402.987
C 21.055 398.024 21.154 393.048 21.018 388.087
C 20.738 377.898 20.95 367.688 20.942 357.496
C 20.936 349.22 20.645 340.876 20.947 332.612 Z"
opacity="1" fill="rgb(34,57,119)" fill-rule="evenodd" />
<path d="
M 84.896 350.478
C 87.463 350.423 90.025 350.411 92.593 350.421
C 93.779 350.426 95.229 350.159 96.365 350.476
C 97.443 354.761 99.92 359.117 101.651 363.193
C 104.648 370.25 107.49 377.394 110.353 384.508
C 111.643 387.714 112.897 390.931 114.159 394.147
C 114.491 394.992 114.81 396.896 115.446 397.455
C 117.326 393.637 118.665 389.448 120.26 385.49
C 123.125 378.379 126.126 371.325 128.986 364.213
C 130.26 361.044 131.508 357.861 132.82 354.71
C 133.397 353.323 133.771 351.62 134.729 350.455
C 138.486 350.487 142.315 350.57 146.064 350.392
C 141.112 364.499 134.2 378.045 128.369 391.808
C 126.46 396.313 124.586 400.838 122.513 405.268
C 121.909 406.559 121.497 408.924 120.501 409.898
C 117.016 409.942 113.491 409.557 110.018 409.995
C 100.854 390.549 93.659 370.156 84.506 350.713
C 84.636 350.634 84.766 350.556 84.896 350.478 Z"
opacity="1" fill="rgb(35,54,116)" fill-rule="evenodd" />
<path d="
M 94.909 263.095
C 95.193 261.305 95.56 259.552 95.976 257.787
C 96.393 259.539 95.938 261.472 96.038 263.269
C 96.205 266.275 97.227 269.306 98.825 271.843
C 108.901 287.839 131.884 287.29 148.34 284.964
C 152.069 284.436 155.806 283.791 159.466 282.896
C 178.599 278.22 196.661 270.673 214.634 262.753
C 229.442 256.229 244.297 249.721 259.292 243.64
C 277.884 236.102 296.781 228.926 316.572 225.212
C 335.619 221.637 355.665 221.161 373.65 229.328
C 378.027 231.316 381.802 234.198 385.532 237.181
C 386.63 238.059 388.947 239.531 389.477 240.853
C 386.317 239.527 383.422 237.208 380.254 235.748
C 374.863 233.265 368.765 231.898 362.916 231.039
C 339.88 227.658 316.006 235.117 294.508 242.571
C 250.876 257.698 210.601 282.25 165.162 292.147
C 148.735 295.724 129.982 297.608 114.029 291.083
C 102.625 286.418 93.776 275.862 94.909 263.095 Z"
opacity="1" fill="rgb(119,182,77)" fill-rule="evenodd" />
<path d="
M 119.165 178.779
C 121.878 178.749 124.859 178.299 127.503 179.1
C 130.607 180.041 132.065 182.452 134.373 184.438
C 135.815 185.679 137.775 186.235 139.138 187.399
C 139.751 188.034 140.05 188.808 139.551 189.624
C 137.184 189.884 135.381 186.168 132.911 185.752
C 132.954 186.607 133.989 188.584 133.771 189.209
C 131.826 189.981 130.219 190.527 128.062 190.168
C 122.998 189.326 119.139 183.795 119.165 178.779 Z"
opacity="1" fill="rgb(53,138,198)" fill-rule="evenodd" />
<path d="
M 121.112 197.834
C 125.935 197.304 130.903 196.359 134.63 200.379
C 135.45 201.264 137.25 203.292 136.613 204.605
C 135.795 204.677 134.708 204.589 134.634 205.549
C 135.088 205.812 135.691 205.872 136.202 206.021
C 136.631 206.395 136.952 206.753 136.674 207.318
C 132.608 209.75 127.068 208.561 124.167 204.832
C 122.561 202.769 121.896 200.272 121.112 197.834 Z"
opacity="1" fill="rgb(55,133,195)" fill-rule="evenodd" />
<path d="
M 123.105 211.892
C 125.911 210.754 130.845 208.745 133.797 210.24
C 135.04 210.87 135.832 212.112 136.783 213.08
C 138.67 213.834 140.61 213.8 142.344 215.009
C 142.923 215.412 143.928 215.972 143.827 216.768
C 141.909 216.831 139.124 214.26 137.475 215.125
C 137.942 215.762 139.516 217.199 139.165 218.051
C 138.297 218.598 137.125 218.315 136.308 219.024
C 136.565 219.8 138.271 220.101 138.972 220.617
C 139.982 224.953 134.439 224.623 132.039 223.576
C 128.341 221.963 127.74 219.345 125.709 216.231
C 124.839 214.897 123.432 213.458 123.105 211.892 Z"
opacity="1" fill="rgb(40,122,182)" fill-rule="evenodd" />
<path d="
M 125.96 158.524
C 126.628 157.421 130.048 159.549 131.032 160.174
C 134.851 162.597 138.091 166.041 137.729 170.828
C 137.618 172.289 137.426 173.739 137.32 175.203
C 137.296 175.529 137.334 176.423 136.806 176.107
C 136.217 175.224 135.824 173.716 134.822 173.159
C 134.533 172.999 134.047 172.395 133.94 172.708
C 133.708 173.389 135.104 175.51 135.476 176.16
C 135.826 176.557 136.447 176.682 136.3 177.245
C 135.387 177.396 133.747 176.5 132.88 176.165
C 125.328 173.24 125.136 165.465 125.96 158.524 Z"
opacity="1" fill="rgb(45,135,198)" fill-rule="evenodd" />
<path d="
M 131.709 230.901
C 134.899 229.584 139.702 227.905 142.96 229.872
C 144.461 230.778 145.277 232.372 146.612 233.455
C 147.636 234.286 148.744 234.55 149.963 234.96
C 150.255 235.059 150.822 235.324 150.775 235.728
C 148.859 235.919 147.106 235.123 145.175 235.395
C 145.154 236.3 146.691 237.016 146.439 237.853
C 141.42 242.983 133.372 235.814 131.709 230.901 Z"
opacity="1" fill="rgb(52,138,196)" fill-rule="evenodd" />
<path d="
M 139.519 202.985
C 143.87 202.883 148.325 204.902 152.512 205.898
C 153.694 206.179 155.148 206.883 156.36 206.811
C 155.756 205.381 153.822 203.811 152.895 202.457
C 149.99 198.219 146.688 194.178 143.574 190.093
C 142.619 188.84 141.384 187.706 140.49 186.414
C 140.244 186.058 139.569 185.042 140.091 184.718
C 140.433 184.506 140.642 185.305 140.919 185.597
C 141.794 186.516 142.555 187.493 143.365 188.468
C 146.996 192.836 150.678 197.309 154.451 201.535
C 155.22 201.089 155.264 197.491 155.496 196.534
C 156.24 193.461 157.39 190.472 158.184 187.456
C 158.571 185.985 158.717 184.222 159.844 183.091
C 159.905 184.642 159.335 186.2 158.948 187.679
C 157.991 191.333 157.462 195.16 157.084 198.912
C 156.939 200.352 156.487 202.135 156.728 203.567
C 156.965 204.97 158.941 206.522 159.826 207.594
C 162.63 210.989 165.662 214.335 168.151 217.967
C 168.348 217.709 168.254 216.75 168.279 216.427
C 168.399 214.893 168.636 213.368 168.779 211.834
C 169.213 207.192 170.283 202.537 171.451 198.034
C 171.832 196.563 172.153 194.064 173.441 193.128
C 173.745 194.987 172.733 197.619 172.419 199.497
C 171.611 204.338 171.426 209.353 171.183 214.246
C 171.09 216.115 170.507 218.642 171.05 220.456
C 171.635 222.414 173.754 224.287 174.969 225.896
C 178.167 230.129 181.339 234.381 184.503 238.639
C 186.089 230.887 188.748 222.162 192.525 215.236
C 192.786 217.26 191.493 220.077 191.057 222.07
C 189.99 226.948 189.262 232.008 188.587 236.954
C 188.352 238.677 187.582 241.208 188.091 242.909
C 188.595 244.59 190.082 246.284 190.98 247.791
C 192.795 250.836 194.567 253.922 196.31 257.008
C 196.932 258.11 197.467 259.314 198.161 260.37
C 198.456 260.818 199.008 261.247 198.885 261.804
C 196.033 262.74 193.314 264.439 190.52 265.574
C 189.094 262.775 187.901 259.859 186.635 256.985
C 186.128 255.834 185.644 254.106 184.616 253.314
C 183.659 252.576 182.256 252.378 181.118 252.062
C 178.617 251.367 176.093 250.831 173.563 250.264
C 169.228 249.291 164.902 248.31 160.489 247.754
C 159.703 247.655 156.663 247.294 156.659 246.585
C 159.021 245.875 162.196 246.326 164.661 246.473
C 170.824 246.839 176.739 247.657 182.784 248.641
C 182.853 248.178 181.865 247.262 181.597 246.874
C 180.375 245.101 179.343 243.147 178.243 241.293
C 177.003 239.203 175.63 235.305 173.405 234.098
C 171.248 232.929 168.032 232.591 165.649 231.975
C 159.358 230.35 152.853 229.259 146.845 226.71
C 145.018 225.934 142.876 225.357 141.383 223.983
C 141.96 223.57 142.784 223.914 143.437 224.094
C 145.44 224.648 147.42 225.238 149.432 225.77
C 156.621 227.673 164.081 227.891 171.371 229.226
C 170.989 228.537 170.254 227.998 169.809 227.32
C 167.139 223.259 164.165 219.41 161.465 215.366
C 160.21 213.486 158.971 210.537 157.024 209.292
C 155.467 208.297 153.443 208.139 151.747 207.479
C 147.618 205.874 143.368 204.855 139.203 203.446
C 139.309 203.292 139.414 203.138 139.519 202.985 Z"
opacity="1" fill="rgb(39,94,160)" fill-rule="evenodd" />
<path d="
M 140.279 244.468
C 143.179 242.357 148.337 241.169 151.593 243.004
C 152.643 243.595 154.681 245.126 154.464 246.427
C 153.966 246.854 153.303 247.124 152.759 247.507
C 152.698 248.463 154.592 248.766 154.251 249.35
C 153.853 250.034 152.227 250.174 151.512 250.396
C 146.924 251.817 142.718 248.414 140.099 244.971
C 140.159 244.803 140.219 244.635 140.279 244.468 Z"
opacity="1" fill="rgb(58,132,194)" fill-rule="evenodd" />
<path d="
M 142.387 178.358
C 143.158 178.452 143.862 178.664 144.622 178.809
C 145.47 180.407 145.751 182.439 146.293 184.167
C 146.405 184.525 146.958 185.704 146.493 185.917
C 145.807 185.633 145.464 184.985 145.09 184.38
C 144.147 182.856 142.197 180.099 142.387 178.358 Z"
opacity="1" fill="rgb(21,95,131)" fill-rule="evenodd" />
<path d="
M 146.878 167.072
C 147.367 165.225 147.933 162.463 149.326 161.1
C 153.828 163.624 157.127 168.236 156.161 173.558
C 155.733 175.91 154.124 176.3 153.033 178.053
C 152.696 178.595 152.429 180.242 151.605 179.424
C 151.308 178.295 152.12 177.303 151.621 176.18
C 150.71 176.175 150.785 177.661 149.587 177.489
C 147.115 174.765 146.116 170.618 146.878 167.072 Z"
opacity="1" fill="rgb(49,136,201)" fill-rule="evenodd" />
<path d="
M 151.922 374.591
C 155.466 352.659 182.057 342.295 200.359 354.158
C 206.497 358.136 210.593 364.38 212.67 371.315
C 213.915 375.475 214.129 380.077 213.483 384.365
C 212.461 391.148 209.573 397.683 204.532 402.448
C 192.436 413.88 171.278 413.46 159.72 401.516
C 156.121 397.797 153.849 393.14 152.576 388.166
C 151.464 383.823 151.205 379.029 151.922 374.591 Z
M 162.517 379.628
C 162.398 385.229 164.416 391.471 168.564 395.377
C 176.227 402.593 189.975 403.02 197.252 394.912
C 200.799 390.961 202.377 385.643 202.578 380.425
C 202.831 373.841 199.766 366.71 194.443 362.762
C 185.017 355.769 170.307 359.096 164.961 369.526
C 163.36 372.648 162.59 376.137 162.517 379.628 Z"
opacity="1" fill="rgb(34,56,120)" fill-rule="evenodd" />
<path d="
M 153.808 258.584
C 157.123 255.548 161.535 251.675 166.479 253.763
C 168.302 254.533 169.252 256.024 170.825 257.032
C 171.874 257.705 174.942 256.973 175.336 258.233
C 175.175 258.802 174.432 258.699 173.958 258.745
C 172.552 258.882 170.59 257.805 169.336 258.467
C 169.692 259.233 170.6 259.539 171.185 260.123
C 171.281 262.189 168.137 263.047 166.609 263.43
C 162.958 264.345 159.475 262.375 156.501 260.476
C 155.765 260.006 154.153 259.37 153.808 258.584 Z"
opacity="1" fill="rgb(42,124,196)" fill-rule="evenodd" />
<path d="
M 163.403 175.586
C 163.909 173.334 164.867 171.353 165.62 169.19
C 169.607 170.923 173.122 175.532 172.753 179.949
C 172.61 181.661 172.019 182.955 171.125 184.39
C 170.894 184.762 170.451 185.735 169.916 185.714
C 169.218 185.686 168.804 183.592 167.951 183.097
C 167.784 183.904 167.828 184.654 167.475 185.414
C 163.208 184.679 162.808 178.842 163.403 175.586 Z"
opacity="1" fill="rgb(51,141,198)" fill-rule="evenodd" />
<path d="
M 174.454 188.607
C 174.798 185.858 176.708 180.717 179.455 179.574
C 183.254 182.633 184.617 188.321 182.232 192.56
C 181.82 193.292 181.222 194.834 180.474 195.251
C 179.459 195.818 179.567 193.394 178.934 193.076
C 178.863 193.04 177.96 193.058 177.959 193.058
C 178.033 193.831 178.354 195.052 177.823 195.729
C 177.079 195.684 176.608 194.751 176.29 194.167
C 175.32 192.386 174.37 190.697 174.454 188.607 Z"
opacity="1" fill="rgb(56,138,199)" fill-rule="evenodd" />
<path d="
M 182.897 207.05
C 183.388 205.95 184.155 204.925 184.272 203.687
C 184.447 201.831 183.754 199.905 183.764 198.034
C 183.782 194.961 186.302 190.147 189.615 189.577
C 190.822 189.926 191.525 191.849 191.956 192.941
C 193.816 197.655 192.661 201.535 189.172 205.146
C 187.933 204.838 187.043 203.951 185.944 203.365
C 185.16 204.788 184.611 206.535 183.915 208.036
C 183.675 208.555 183.505 209.64 182.827 208.939
C 182.751 208.282 182.768 207.698 182.897 207.05 Z"
opacity="1" fill="rgb(58,140,205)" fill-rule="evenodd" />
<path d="
M 190.289 206.068
C 191.194 203.158 192.56 199.719 195.397 198.139
C 196.831 198.494 197.676 200.502 198.22 201.779
C 199.852 205.605 199.148 209.828 195.69 212.216
C 195.055 212.655 194.241 213.377 193.445 213.436
C 193.478 212.104 194.34 211.178 194.095 209.694
C 192.777 209.754 193.166 212.191 191.684 211.797
C 190.478 210.316 189.951 207.931 190.289 206.068 Z"
opacity="1" fill="rgb(50,136,206)" fill-rule="evenodd" />
<path d="
M 192.461 169.599
C 192.759 168.412 193.03 167.211 193.31 166.019
C 199.041 167.417 205.869 172.134 207.326 178.135
C 207.997 180.903 207.202 183.219 207.262 185.944
C 207.295 187.399 208.514 188.096 209.295 189.188
C 209.566 189.566 210.053 190.224 209.777 190.661
C 209.278 190.831 208.824 190.87 208.298 190.875
C 206.53 190.103 205.139 186.931 204.203 185.338
C 203.944 184.897 203.061 183.353 202.471 183.473
C 202.208 183.527 202.479 184.018 202.553 184.277
C 202.879 185.428 204.03 186.601 203.83 187.826
C 201.907 189.894 198.28 187.243 196.809 185.931
C 192.16 181.781 191.598 175.42 192.461 169.599 Z"
opacity="1" fill="rgb(40,148,137)" fill-rule="evenodd" />
<path d="
M 194.895 221.073
C 196.004 217.105 199.111 213.414 203.008 211.974
C 203.493 213.562 204.281 215.005 204.675 216.668
C 205.707 221.025 204.169 228.467 198.671 229.031
C 198.505 228.677 197.453 225.286 197.121 226.966
C 197.039 228.577 196.753 231.129 194.701 231.03
C 194.883 229.809 195.901 228.718 195.903 227.485
C 195.904 226.79 195.224 226.16 195.011 225.509
C 194.555 224.116 194.628 222.497 194.895 221.073 Z"
opacity="1" fill="rgb(51,140,200)" fill-rule="evenodd" />
<path d="
M 197.469 150.099
C 197.889 147.529 198.439 145.176 199.419 142.755
C 200.919 142.577 202.793 144.627 203.898 145.525
C 207.981 148.846 211.254 152.976 210.468 158.563
C 210.28 159.895 209.971 162.435 208.689 163.204
C 208.255 163.077 207.941 162.204 207.677 161.83
C 207.081 160.99 206.412 160.418 205.573 159.824
C 205.763 160.562 207.19 163.647 206.996 164.276
C 199.698 164.095 196.802 156.33 197.469 150.099 Z"
opacity="1" fill="rgb(46,152,136)" fill-rule="evenodd" />
<path d="
M 201.932 260.645
C 202.832 256.325 204.466 252.101 205.622 247.837
C 208.1 238.7 211.119 229.55 214.553 220.727
C 216.139 216.654 217.697 212.551 219.444 208.544
C 220.119 206.997 221.577 204.805 221.644 203.114
C 221.753 200.338 220.449 197.042 219.847 194.339
C 218.429 187.981 216.718 181.539 214.603 175.378
C 213.457 172.038 211.493 168.159 211.383 164.6
C 213.522 165.709 214.787 170.411 215.837 172.512
C 219.397 179.64 223.393 186.845 226.028 194.359
C 226.776 193.974 227.088 192.256 227.44 191.519
C 228.708 188.861 230.153 186.23 231.55 183.636
C 233.924 179.228 236.232 174.781 238.729 170.442
C 239.697 168.76 241.742 166.442 241.945 164.481
C 242.115 162.838 241.506 160.966 241.224 159.355
C 240.58 155.675 239.909 152.021 239.094 148.374
C 237.949 143.25 236.465 138.215 234.77 133.246
C 234.21 131.603 233.653 129.958 233.148 128.299
C 233.11 128.172 232.339 125.402 232.691 125.546
C 233.318 125.804 233.837 127.403 234.084 127.994
C 234.854 129.837 235.807 131.63 236.614 133.462
C 240.235 141.685 243.158 149.97 246.066 158.453
C 246.844 157.942 247.232 156.599 247.682 155.806
C 248.853 153.741 250.23 151.792 251.488 149.78
C 253.227 146.999 254.952 144.211 256.684 141.426
C 257.458 140.181 258.781 138.875 259.096 137.41
C 259.687 134.667 258.138 130.935 257.419 128.314
C 255.507 121.336 252.899 114.621 250.72 107.738
C 250.789 107.157 252.254 109.879 252.485 110.335
C 253.435 112.213 254.436 114.089 255.243 116.034
C 257.599 121.71 260.603 127.418 262.138 133.388
C 262.673 133.373 262.905 132.439 263.123 132.055
C 263.955 130.587 264.769 129.128 265.704 127.721
C 269.189 122.474 272.655 116.892 275.39 111.215
C 276.007 109.935 277.261 105.938 278.953 105.772
C 279.068 105.76 278.45 107.013 278.444 107.026
C 278.007 107.842 277.66 108.7 277.267 109.538
C 276.129 111.959 274.995 114.385 273.882 116.816
C 271.338 122.376 268.387 127.79 265.525 133.192
C 264.475 135.174 263.046 137.035 262.136 139.066
C 263.999 139.161 266.495 137.637 268.217 136.978
C 273.167 135.084 277.983 132.587 283.055 131.047
C 284.683 130.553 286.8 129.105 288.508 129.409
C 288.098 130.339 287.18 130.693 286.323 131.133
C 284.398 132.123 282.474 133.102 280.538 134.074
C 275.941 136.381 271.331 138.676 266.744 141.014
C 264.608 142.103 262.105 143.037 260.177 144.461
C 257.847 146.181 256.585 150.609 255.271 153.141
C 252.528 158.422 249.93 163.785 247.457 169.197
C 246.467 171.366 245.201 173.533 244.496 175.81
C 248.1 175.55 251.823 174.282 255.326 173.376
C 262.458 171.533 269.432 169.4 276.361 166.89
C 279.82 165.637 283.151 162.994 286.709 162.219
C 287.022 162.845 285.989 163.309 285.583 163.652
C 284.392 164.658 283.062 165.547 281.762 166.411
C 276.015 170.228 269.371 172.784 263.038 175.431
C 258.425 177.359 253.63 179.079 248.867 180.596
C 246.746 181.272 243.352 181.822 241.603 183.199
C 239.96 184.492 239.388 187.699 238.595 189.578
C 236.319 194.976 233.924 200.526 232.185 206.122
C 232.642 206.54 233.676 206.087 234.236 205.905
C 236.253 205.249 238.301 204.746 240.347 204.19
C 247.435 202.263 254.693 200.88 261.933 199.671
C 263.628 199.388 265.306 199.023 267.026 198.914
C 267.428 198.889 268.634 198.562 268.947 198.856
C 269.693 199.558 266.704 200.26 266.369 200.348
C 263.073 201.21 259.709 202.127 256.501 203.291
C 248.153 206.318 239.943 209.667 231.904 213.446
C 228.06 215.253 227.522 220.163 226.42 223.952
C 224.493 230.581 222.912 237.306 221.429 244.046
C 220.771 247.038 220.608 250.327 219.697 253.234
C 218.327 254.214 216.37 254.757 214.812 255.397
C 211.913 256.588 209.065 257.872 206.217 259.177
C 205.116 259.681 204.035 260.199 202.952 260.738
C 202.696 260.866 202.116 261.292 201.856 261.158
C 201.881 260.987 201.907 260.816 201.932 260.645 Z"
opacity="1" fill="rgb(43,153,107)" fill-rule="evenodd" />
<path d="
M 205.458 131.591
C 206.217 128.955 207.075 126.49 208.101 123.941
C 209.025 123.691 211.141 125.737 211.926 126.338
C 215.9 129.38 219.208 133.684 218.622 138.907
C 218.475 140.225 217.936 141.324 217.551 142.567
C 217.436 142.939 218.34 143.44 217.97 143.634
C 217.107 144.086 215.848 144.804 214.841 144.971
C 207.629 146.166 204.527 137.107 205.458 131.591 Z
M 214.211 141.623
C 214.14 141.706 214.07 141.789 213.999 141.872
C 214.328 142.662 214.617 143.694 215.32 144.269
C 215.799 144.662 216.404 144.31 216.254 143.724
C 215.7 142.566 215.412 142.233 214.211 141.623 Z"
opacity="1" fill="rgb(43,147,131)" fill-rule="evenodd" />
<path d="
M 214.211 141.623
C 215.412 142.233 215.7 142.566 216.254 143.724
C 216.404 144.31 215.799 144.662 215.32 144.269
C 214.617 143.694 214.328 142.662 213.999 141.872
C 214.07 141.789 214.14 141.706 214.211 141.623 Z"
opacity="1" fill="rgb(196,244,240)" fill-rule="evenodd" />
<path d="
M 216.405 116.583
C 217.153 113.394 218.448 110.67 220.002 107.798
C 221.474 107.94 223.51 110.473 224.541 111.539
C 228.323 115.45 230.887 119.83 229.546 125.395
C 229.236 126.681 228.77 128.334 227.83 129.3
C 227.156 129.614 224.582 126.389 224.073 125.842
C 224.351 127.068 226.058 129.186 225.826 130.346
C 224.519 131.057 222.047 129.728 220.955 129.002
C 216.877 126.287 215.636 121.183 216.405 116.583 Z"
opacity="1" fill="rgb(52,150,134)" fill-rule="evenodd" />
<path d="
M 218.476 144.168
C 218.596 143.516 218.601 143.283 219.164 142.886
C 219.784 143.302 220.054 144.152 220.341 144.817
C 220.971 146.272 222.439 148.588 222.256 150.207
C 220.135 151.016 218.656 145.697 218.476 144.168 Z"
opacity="1" fill="rgb(24,127,110)" fill-rule="evenodd" />
<path d="
M 219.815 331.035
C 223.592 331.073 227.321 330.991 231.096 330.87
C 233.335 335.459 234.312 341.002 235.887 345.862
C 239.562 357.204 243.097 368.645 246.405 380.101
C 247.553 384.077 248.735 388.047 249.774 392.054
C 249.954 392.749 250.185 395.872 250.842 396.107
C 251.803 393.7 252.299 391.031 253.06 388.546
C 254.694 383.209 256.331 377.871 257.971 372.535
C 262.204 358.758 266.735 345.065 270.878 331.259
C 273.824 331.06 277.72 330.581 280.598 331.203
C 286.167 346.807 290.605 362.851 295.656 378.631
C 296.987 382.789 298.299 386.943 299.517 391.137
C 299.899 392.453 300.038 395.112 300.992 396.066
C 306.549 374.337 313.291 352.789 319.881 331.354
C 320.577 330.788 322.109 331.11 323 331.104
C 325.719 331.084 328.434 330.993 331.15 330.944
C 331.22 332.502 329.813 334.972 329.359 336.503
C 328.014 341.032 326.59 345.539 325.205 350.053
C 321.126 363.343 316.961 376.614 312.658 389.832
C 311.327 393.92 310.069 398.052 308.653 402.111
C 307.84 404.442 306.537 407.255 306.363 409.73
C 304.3 409.985 301.982 409.675 299.895 409.641
C 298.597 409.62 297.074 409.862 295.817 409.616
C 291.692 395.653 286.708 381.921 282.25 368.06
C 280.757 363.421 279.33 358.767 277.877 354.116
C 277.342 352.404 276.838 350.691 276.378 348.958
C 276.284 348.605 275.988 347.22 275.759 347.141
C 275.5 347.051 275.519 347.633 275.399 347.879
C 271.083 361.955 266.669 375.999 262.221 390.039
C 260.14 396.609 257.47 403.102 255.802 409.788
C 252.405 410.144 248.93 409.583 245.517 409.94
C 244.37 409.278 243.788 405.699 243.382 404.407
C 241.804 399.384 240.171 394.384 238.612 389.355
C 234.464 375.975 229.849 362.745 225.584 349.405
C 223.679 343.446 222.411 336.84 219.64 331.217
C 219.698 331.157 219.757 331.096 219.815 331.035 Z"
opacity="1" fill="rgb(127,187,75)" fill-rule="evenodd" />
<path d="
M 230.384 101.57
C 231.501 97.47 233.639 93.512 236.853 90.65
C 238.177 90.7 239.544 93.786 240.209 94.831
C 242.965 99.16 244.973 105.148 242.82 110.159
C 242.192 111.621 241.221 112.883 240.455 114.269
C 240.241 114.655 240.079 115.332 239.581 115.346
C 239.432 114.194 238.652 110.649 237.56 110.139
C 237.401 111.463 237.369 113.004 237.657 114.31
C 237.827 115.085 238.627 116.141 238.405 116.872
C 236.436 115.663 233.967 114.266 232.472 112.485
C 230.015 109.556 229.629 105.2 230.384 101.57 Z"
opacity="1" fill="rgb(43,150,113)" fill-rule="evenodd" />
<path d="
M 255.526 214.88
C 255.579 215.307 255.628 215.559 255.888 215.901
C 253.901 216.748 252.132 216.888 249.951 216.847
C 248.805 216.826 247.795 217.235 247.665 215.808
C 248.138 215.093 249.151 215.174 249.947 215.079
C 251.828 214.853 253.627 214.572 255.526 214.88 Z"
opacity="0.996" fill="rgb(60,165,73)" fill-rule="evenodd" />
<path d="
M 249.958 88.081
C 251.189 84.629 252.824 82.171 255.105 79.329
C 255.918 79.694 256.713 81.174 257.246 81.898
C 259.445 84.884 261.567 88.628 260.827 92.472
C 260.484 94.253 259.383 95.669 258.614 97.275
C 258.493 97.527 257.986 98.714 257.744 98.466
C 257.147 97.367 256.966 95.752 255.833 95.127
C 255.514 96.322 255.705 97.6 256.163 98.747
C 256.257 98.984 257.469 100.907 256.856 100.676
C 252.312 97.516 248.684 94.212 249.958 88.081 Z"
opacity="1" fill="rgb(120,183,70)" fill-rule="evenodd" />
<path d="
M 255.526 214.88
C 256.266 214.569 256.45 213.571 256.948 212.972
C 257.922 211.801 259.406 210.94 260.759 210.276
C 266.056 207.675 271.19 209.001 276.146 211.588
C 277.185 212.13 279.704 213.081 280.219 214.173
C 280.042 215.319 277.751 216.933 276.908 217.727
C 273.084 221.329 267.947 224.009 262.578 222.998
C 260.284 222.566 255.39 220.454 256.167 217.384
C 257.192 216.954 260.358 217.13 260.903 216.101
C 261.101 215.726 259.785 215.838 259.634 215.836
C 258.383 215.824 257.136 215.794 255.888 215.901
C 255.628 215.559 255.579 215.307 255.526 214.88 Z"
opacity="1" fill="rgb(130,191,73)" fill-rule="evenodd" />
<path d="
M 264.448 83.579
C 265.778 79.357 268.615 74.087 272.508 71.654
C 275.879 76.201 280.212 81.51 279.541 87.616
C 279.243 90.336 277.837 93.239 276.567 95.618
C 276.069 96.429 274.762 97.346 273.789 96.765
C 273.15 95.381 273.065 93.539 272.149 92.358
C 272.08 94.329 272.766 97.262 272.268 99.119
C 271.531 99.442 269.057 97.267 268.473 96.746
C 264.717 93.399 263.299 88.477 264.448 83.579 Z"
opacity="1" fill="rgb(128,187,78)" fill-rule="evenodd" />
<path d="
M 271.862 183.011
C 274.522 181.754 277.431 181.308 280.299 180.802
C 280.899 180.117 281.003 179.099 281.334 178.265
C 281.876 176.903 282.849 175.587 283.942 174.618
C 287.714 171.279 293.194 171.471 297.898 171.959
C 299.369 172.112 301.016 172.113 302.436 172.508
C 302.205 173.166 301.981 173.822 301.764 174.484
C 299.972 179.638 296.575 185.513 290.73 186.781
C 288.331 187.301 285.265 187.185 282.918 186.454
C 281.745 186.089 280.522 185.354 280.827 183.963
C 281.81 182.599 284.319 182.972 285.022 181.375
C 281.662 181.291 278.188 183.07 274.917 183.68
C 274.069 183.838 271.518 184.343 271.862 183.011 Z"
opacity="1" fill="rgb(126,188,74)" fill-rule="evenodd" />
<path d="
M 272.507 106.117
C 273.237 102.705 273.101 98.263 276.785 96.799
C 275.477 98.924 275.503 102.208 274.493 104.558
C 273.972 105.77 273.943 106.559 272.595 106.948
C 272.347 106.509 272.425 106.776 272.507 106.117 Z"
opacity="1" fill="rgb(53,139,82)" fill-rule="evenodd" />
<path d="
M 272.451 197.571
C 274.896 187.934 286.658 190.079 293.669 191.907
C 293.951 192.64 291.689 195.363 291.236 196.006
C 288.493 199.893 284.389 203.984 279.186 203.586
C 277.532 203.459 275.895 203.105 274.436 202.302
C 273.836 201.971 272.885 201.501 272.959 200.745
C 273.81 200.197 276.311 199.726 276.861 198.898
C 276.963 198.745 275.353 198.708 275.251 198.706
C 274.287 198.692 273.333 198.71 272.383 198.521
C 272.336 197.948 272.329 198.266 272.451 197.571 Z"
opacity="1" fill="rgb(130,189,74)" fill-rule="evenodd" />
<path d="
M 281.916 109.63
C 282.583 106.85 285.572 105.347 287.633 103.636
C 288.596 102.837 289.486 101.804 290.822 101.801
C 291.012 103.04 290.947 105.164 290.215 106.231
C 288.12 106.704 286.484 108.446 284.811 109.694
C 283.853 110.409 282.99 111.057 282.013 110.038
C 281.98 109.902 281.948 109.766 281.916 109.63 Z"
opacity="1" fill="rgb(82,166,72)" fill-rule="evenodd" />
<path d="
M 281.805 150.025
C 282.636 149.407 283.513 148.801 284.464 148.38
C 285.208 148.05 285.966 147.744 286.712 147.417
C 287.681 146.992 290.54 146.249 288.912 148.192
C 287.931 149.363 285.68 150.014 284.289 150.503
C 283.419 150.808 281.645 151.331 281.805 150.025 Z"
opacity="0.996" fill="rgb(54,151,74)" fill-rule="evenodd" />
<path d="
M 282.911 79.091
C 284.543 71.546 291.004 65.635 298.152 63.066
C 300.822 70.31 302.225 79.84 297.233 86.41
C 295.815 88.276 293.841 89.638 291.727 90.621
C 291.037 90.942 289.874 91.566 289.187 91.149
C 289.197 89.175 290.525 86.475 290.192 84.643
C 288.417 87.005 288.126 89.983 286.511 92.303
C 285.702 91.904 285.404 90.598 284.976 89.854
C 283.088 86.578 282.399 82.833 282.911 79.091 Z"
opacity="1" fill="rgb(131,188,73)" fill-rule="evenodd" />
<path d="
M 289.948 149.129
C 290.481 147.792 290.503 146.127 291.323 144.929
C 294.67 140.039 300.523 139.362 305.964 139.773
C 308.08 139.933 310.413 140.107 312.373 140.991
C 310.477 144.311 308.073 147.292 306.146 150.541
C 306.954 150.788 308.807 150.772 309.296 151.507
C 306.551 157.61 301.611 163.982 294.075 162.306
C 292.811 162.025 291.771 161.579 290.722 160.814
C 290.976 159.711 293.577 159.643 294.075 158.473
C 293.311 157.781 291.313 158.803 290.282 158.584
C 290.457 157.03 291.143 155.758 291.874 154.408
C 292.046 154.175 292.769 153.566 292.636 153.278
C 291.799 153.311 290.96 153.444 290.179 153.09
C 290.463 151.904 291.158 151.379 292.025 150.593
C 292.111 150.515 292.851 149.761 292.72 149.617
C 292.566 149.45 291.501 149.896 291.295 149.932
C 290.857 150.009 290.45 149.966 290.016 150.053
C 289.833 149.522 289.884 149.826 289.948 149.129 Z"
opacity="1" fill="rgb(132,190,77)" fill-rule="evenodd" />
<path d="
M 291.447 130.589
C 293.614 120.96 302.963 118.791 311.746 119.541
C 312.16 121.283 311.354 123.684 310.848 125.363
C 308.621 132.746 299.174 140.307 291.631 134.511
C 292.769 132.952 295.211 132.152 295.928 130.288
C 295.006 130.127 292.601 131.52 291.627 131.858
C 291.275 131.484 291.409 131.081 291.447 130.589 Z"
opacity="1" fill="rgb(130,189,71)" fill-rule="evenodd" />
<path d="
M 291.941 104.576
C 293.606 96.789 300.028 93.687 307.427 93.234
C 309.121 93.131 311.043 92.851 312.71 93.223
C 311.625 100.283 308.96 108.658 300.908 110.195
C 298.035 110.744 295.057 109.949 292.207 109.547
C 291.631 108.579 294.284 106.692 294.987 106.028
C 295.294 105.738 296.138 105.194 295.836 104.706
C 294.461 105.05 293.214 105.751 291.806 105.965
C 291.69 105.463 291.829 105.08 291.941 104.576 Z"
opacity="1" fill="rgb(131,187,72)" fill-rule="evenodd" />
<path d="
M 335.48 379.113
C 336.626 371.029 338.321 363.163 344.614 357.296
C 357.013 345.738 379.584 346.606 389.758 360.721
C 394.735 367.626 395.412 375.731 394.832 383.907
C 384.053 383.768 373.28 383.797 362.498 383.858
C 357.123 383.888 351.188 383.204 345.903 384.199
C 346.686 387.775 348.111 391.314 350.46 394.172
C 359.334 404.973 376.264 403.2 385.491 394.259
C 387.129 395.401 388.707 397.017 390.201 398.362
C 390.396 398.537 391.881 399.662 391.809 399.792
C 387.798 404.048 383.494 407.314 377.817 409.122
C 362.507 413.997 343.466 407.603 337.516 391.814
C 336.001 387.792 335.356 383.403 335.48 379.113 Z
M 345.887 374.565
C 345.824 375.105 345.72 375.626 345.606 376.159
C 354.068 376.415 362.594 375.952 371.063 375.947
C 374.271 375.945 377.478 375.938 380.685 375.934
C 382.241 375.932 383.923 376.216 385.454 375.925
C 384.412 361.617 368.82 354.239 356.351 360.551
C 350.736 363.394 347.553 368.733 345.887 374.565 Z"
opacity="1" fill="rgb(124,184,73)" fill-rule="evenodd" />
<path d="
M 410.386 327.627
C 410.488 326.932 410.469 327.359 410.282 326.348
C 412.68 326.21 415.099 326.318 417.503 326.287
C 418.285 326.277 419.737 325.96 420.372 326.412
C 420.477 347.442 420.575 368.465 420.642 389.497
C 420.657 394.498 420.645 399.499 420.669 404.5
C 420.675 405.777 420.713 407.052 420.735 408.328
C 420.738 408.489 420.623 409.52 420.783 409.629
C 418.382 409.813 415.898 409.496 413.485 409.536
C 412.577 409.552 411.102 410.001 410.299 409.626
C 410.879 403.166 410.347 396.479 410.348 389.994
C 410.351 376.661 410.378 363.328 410.34 349.995
C 410.319 342.581 409.921 335.026 410.386 327.627 Z"
opacity="1" fill="rgb(122,185,72)" fill-rule="evenodd" />
<path d="
M 441.698 326.287
C 444.148 326.278 446.6 326.31 449.051 326.281
C 449.849 326.271 451.248 325.944 451.904 326.38
C 451.614 332.899 452.063 339.474 452.053 345.996
C 452.037 357.829 452.096 369.663 452.119 381.496
C 452.131 387.829 452.136 394.162 452.146 400.496
C 452.151 403.332 451.627 406.923 452.316 409.669
C 448.768 409.738 445.247 409.214 441.693 409.592
C 441.14 405.538 441.598 401.088 441.593 396.993
C 441.582 388.162 441.641 379.331 441.644 370.501
C 441.646 360.662 441.543 350.824 441.545 340.985
C 441.547 336.154 441.136 331.084 441.698 326.287 Z"
opacity="1" fill="rgb(122,184,74)" fill-rule="evenodd" />

</svg>